<svg xmlns="http://www.w3.org/2000/svg">
<!-- Icons from https://github.com/Templarian/MaterialDesign under Apache 2.0 (https://www.apache.org/licenses/LICENSE-2.0) -->
<symbol id="opts" viewBox="0 -2 24 24">
<path d="M12,16A2,2 0 0,1 14,18A2,2 0 0,1 12,20A2,2 0 0,1 10,18A2,2 0 0,1 12,16M12,10A2,2 0 0,1 14,12A2,2 0 0,1 12,14A2,2 0 0,1 10,12A2,2 0 0,1 12,10M12,4A2,2 0 0,1 14,6A2,2 0 0,1 12,8A2,2 0 0,1 10,6A2,2 0 0,1 12,4Z"/>
</symbol>
<symbol id="plus" viewBox="0 0 24 24">
<path d="M19,13H13V19H11V13H5V11H11V5H13V11H19V13Z"/>
</symbol>
<symbol id="close" viewBox="0 0 24 24">
<path d="M19,6.41L17.59,5L12,10.59L6.41,5L5,6.41L10.59,12L5,17.59L6.41,19L12,13.41L17.59,19L19,17.59L13.41,12L19,6.41Z" />
</symbol>
<symbol id="gear" viewBox="0 0 24 24">
<path d="M12,15.5A3.5,3.5 0 0,1 8.5,12A3.5,3.5 0 0,1 12,8.5A3.5,3.5 0 0,1 15.5,12A3.5,3.5 0 0,1 12,15.5M19.43,12.97C19.47,12.65 19.5,12.33 19.5,12C19.5,11.67 19.47,11.34 19.43,11L21.54,9.37C21.73,9.22 21.78,8.95 21.66,8.73L19.66,5.27C19.54,5.05 19.27,4.96 19.05,5.05L16.56,6.05C16.04,5.66 15.5,5.32 14.87,5.07L14.5,2.42C14.46,2.18 14.25,2 14,2H10C9.75,2 9.54,2.18 9.5,2.42L9.13,5.07C8.5,5.32 7.96,5.66 7.44,6.05L4.95,5.05C4.73,4.96 4.46,5.05 4.34,5.27L2.34,8.73C2.21,8.95 2.27,9.22 2.46,9.37L4.57,11C4.53,11.34 4.5,11.67 4.5,12C4.5,12.33 4.53,12.65 4.57,12.97L2.46,14.63C2.27,14.78 2.21,15.05 2.34,15.27L4.34,18.73C4.46,18.95 4.73,19.03 4.95,18.95L7.44,17.94C7.96,18.34 8.5,18.68 9.13,18.93L9.5,21.58C9.54,21.82 9.75,22 10,22H14C14.25,22 14.46,21.82 14.5,21.58L14.87,18.93C15.5,18.67 16.04,18.34 16.56,17.94L19.05,18.95C19.27,19.03 19.54,18.95 19.66,18.73L21.66,15.27C21.78,15.05 21.73,14.78 21.54,14.63L19.43,12.97Z" />
</symbol>
<symbol id="pen" viewBox="0 0 24 24">
<path d="M20.71,7.04C21.1,6.65 21.1,6 20.71,5.63L18.37,3.29C18,2.9 17.35,2.9 16.96,3.29L15.12,5.12L18.87,8.87M3,17.25V21H6.75L17.81,9.93L14.06,6.18L3,17.25Z" />
</symbol>
<symbol id="brush" viewBox="0 0 24 24">
<path d="M20.71,4.63L19.37,3.29C19,2.9 18.35,2.9 17.96,3.29L9,12.25L11.75,15L20.71,6.04C21.1,5.65 21.1,5 20.71,4.63M7,14A3,3 0 0,0 4,17C4,18.31 2.84,19 2,19C2.92,20.22 4.5,21 6,21A4,4 0 0,0 10,17A3,3 0 0,0 7,14Z" />
</symbol>
<symbol id="select" viewBox="0 0 24 24">
<path d="M13,17H17V13H19V17H23V19H19V23H17V19H13V17M11,17V19H9V17H11M7,17V19H5V17H7M19,9V11H17V9H19M19,5V7H17V5H19M15,5V7H13V5H15M11,5V7H9V5H11M7,5V7H5V5H7M7,13V15H5V13H7M7,9V11H5V9H7Z" />
</symbol>
<symbol id="move" viewBox="0 0 24 24">
<path d="M13,6V11H18V7.75L22.25,12L18,16.25V13H13V18H16.25L12,22.25L7.75,18H11V13H6V16.25L1.75,12L6,7.75V11H11V6H7.75L12,1.75L16.25,6H13Z" />
</symbol>
<symbol id="fill" viewBox="0 -3 24 24">
<path d="M19,11.5C19,11.5 17,13.67 17,15A2,2 0 0,0 19,17A2,2 0 0,0 21,15C21,13.67 19,11.5 19,11.5M5.21,10L10,5.21L14.79,10M16.56,8.94L7.62,0L6.21,1.41L8.59,3.79L3.44,8.94C2.85,9.5 2.85,10.47 3.44,11.06L8.94,16.56C9.23,16.85 9.62,17 10,17C10.38,17 10.77,16.85 11.06,16.56L16.56,11.06C17.15,10.47 17.15,9.5 16.56,8.94Z" />
</symbol>
<symbol id="wand" viewBox="0 0 24 24">
<path d="M7.5,5.6L5,7L6.4,4.5L5,2L7.5,3.4L10,2L8.6,4.5L10,7L7.5,5.6M19.5,15.4L22,14L20.6,16.5L22,19L19.5,17.6L17,19L18.4,16.5L17,14L19.5,15.4M22,2L20.6,4.5L22,7L19.5,5.6L17,7L18.4,4.5L17,2L19.5,3.4L22,2M13.34,12.78L15.78,10.34L13.66,8.22L11.22,10.66L13.34,12.78M14.37,7.29L16.71,9.63C17.1,10 17.1,10.65 16.71,11.04L5.04,22.71C4.65,23.1 4,23.1 3.63,22.71L1.29,20.37C0.9,20 0.9,19.35 1.29,18.96L12.96,7.29C13.35,6.9 14,6.9 14.37,7.29Z" />
</symbol>
<symbol id="mirror" viewBox="0 0 24 24">
<path d="M8.29 10.28L11.53 7.03L12.59 8.09L9.35 11.34L8.29 10.28M8.7 14.61L14.36 8.95L15.42 10L9.76 15.67L8.7 14.61M18 3V21H6V3H18M20 1H4V23H20V1Z" />
</symbol>
<symbol id="grid" viewBox="0 0 24 24">
<path d="M10,4V8H14V4H10M16,4V8H20V4H16M16,10V14H20V10H16M16,16V20H20V16H16M14,20V16H10V20H14M8,20V16H4V20H8M8,14V10H4V14H8M8,8V4H4V8H8M10,14H14V10H10V14M4,2H20A2,2 0 0,1 22,4V20A2,2 0 0,1 20,22H4C2.92,22 2,21.1 2,20V4A2,2 0 0,1 4,2Z" />
</symbol>
<symbol id="swap" viewBox="0 0 24 24">
<path d="M9,3L5,7H8V14H10V7H13M16,17V10H14V17H11L15,21L19,17H16Z" />
</symbol>
<symbol id="rot90" viewBox="0 0 24 24">
<path d="M16.89,15.5L18.31,16.89C19.21,15.73 19.76,14.39 19.93,13H17.91C17.77,13.87 17.43,14.72 16.89,15.5M13,17.9V19.92C14.39,19.75 15.74,19.21 16.9,18.31L15.46,16.87C14.71,17.41 13.87,17.76 13,17.9M19.93,11C19.76,9.61 19.21,8.27 18.31,7.11L16.89,8.53C17.43,9.28 17.77,10.13 17.91,11M15.55,5.55L11,1V4.07C7.06,4.56 4,7.92 4,12C4,16.08 7.05,19.44 11,19.93V17.91C8.16,17.43 6,14.97 6,12C6,9.03 8.16,6.57 11,6.09V10L15.55,5.55Z" />
</symbol>
<symbol id="rot270" viewBox="0 0 24 24">
<path d="M13,4.07V1L8.45,5.55L13,10V6.09C15.84,6.57 18,9.03 18,12C18,14.97 15.84,17.43 13,17.91V19.93C16.95,19.44 20,16.08 20,12C20,7.92 16.95,4.56 13,4.07M7.1,18.32C8.26,19.22 9.61,19.76 11,19.93V17.9C10.13,17.75 9.29,17.41 8.54,16.87L7.1,18.32M6.09,13H4.07C4.24,14.39 4.79,15.73 5.69,16.89L7.1,15.47C6.58,14.72 6.23,13.88 6.09,13M7.11,8.53L5.7,7.11C4.8,8.27 4.24,9.61 4.07,11H6.09C6.23,10.13 6.58,9.28 7.11,8.53Z" />
</symbol>
<symbol id="fliph" viewBox="0 0 24 24">
<path d="M15 21H17V19H15M19 9H21V7H19M3 5V19C3 20.1 3.9 21 5 21H9V19H5V5H9V3H5C3.9 3 3 3.9 3 5M19 3V5H21C21 3.9 20.1 3 19 3M11 23H13V1H11M19 17H21V15H19M15 5H17V3H15M19 13H21V11H19M19 21C20.1 21 21 20.1 21 19H19Z" />
</symbol>
<symbol id="flipv" viewBox="0 0 24 24">
<path d="M3 15V17H5V15M15 19V21H17V19M19 3H5C3.9 3 3 3.9 3 5V9H5V5H19V9H21V5C21 3.9 20.1 3 19 3M21 19H19V21C20.1 21 21 20.1 21 19M1 11V13H23V11M7 19V21H9V19M19 15V17H21V15M11 19V21H13V19M3 19C3 20.1 3.9 21 5 21V19Z" />
</symbol>
<symbol id="anchor" viewBox="0 0 24 24">
<path d="M12 2A3 3 0 0 0 9 5A3 3 0 0 0 11 7.83V9H8V11H11V19.92C10.26 19.79 9.5 19.58 8.79 19.27C8.05 18.95 7.4 18.56 6.82 18.09C6.24 17.62 5.78 17.11 5.44 16.55L7 15L3 12V15C3 15.97 3.27 16.88 3.82 17.72C4.37 18.56 5.09 19.31 6 19.95C6.87 20.59 7.84 21.09 8.88 21.45C9.93 21.81 10.97 22 12 22C13.03 22 14.07 21.8 15.12 21.44C16.16 21.08 17.13 20.58 18 19.95C18.92 19.31 19.63 18.57 20.18 17.72C20.73 16.88 21 15.97 21 15V12L17 15L18.56 16.55C18.22 17.11 17.76 17.62 17.18 18.09C16.6 18.56 15.95 18.95 15.21 19.27C14.5 19.58 13.74 19.79 13 19.92V11H16V9H13V7.82A3 3 0 0 0 15 5A3 3 0 0 0 12 2M12 4A1 1 0 0 1 13 5A1 1 0 0 1 12 6A1 1 0 0 1 11 5A1 1 0 0 1 12 4Z" />
</symbol>
</svg>
