<svg xmlns="http://www.w3.org/2000/svg">
<symbol id="pen" viewBox="0 0 24 24">
<path d="M20.71,7.04C21.1,6.65 21.1,6 20.71,5.63L18.37,3.29C18,2.9 17.35,2.9 16.96,3.29L15.12,5.12L18.87,8.87M3,17.25V21H6.75L17.81,9.93L14.06,6.18L3,17.25Z" />
</symbol>
<symbol id="brush" viewBox="0 0 24 24">
<path d="M20.71,4.63L19.37,3.29C19,2.9 18.35,2.9 17.96,3.29L9,12.25L11.75,15L20.71,6.04C21.1,5.65 21.1,5 20.71,4.63M7,14A3,3 0 0,0 4,17C4,18.31 2.84,19 2,19C2.92,20.22 4.5,21 6,21A4,4 0 0,0 10,17A3,3 0 0,0 7,14Z" />
</symbol>
<symbol id="select" viewBox="0 0 24 24">
<path d="M13,17H17V13H19V17H23V19H19V23H17V19H13V17M11,17V19H9V17H11M7,17V19H5V17H7M19,9V11H17V9H19M19,5V7H17V5H19M15,5V7H13V5H15M11,5V7H9V5H11M7,5V7H5V5H7M7,13V15H5V13H7M7,9V11H5V9H7Z" />
</symbol>
<symbol id="move" viewBox="0 0 24 24">
<path d="M13,6V11H18V7.75L22.25,12L18,16.25V13H13V18H16.25L12,22.25L7.75,18H11V13H6V16.25L1.75,12L6,7.75V11H11V6H7.75L12,1.75L16.25,6H13Z" />
</symbol>
<symbol id="fill" viewBox="0 0 24 24">
<path d="M19,11.5C19,11.5 17,13.67 17,15A2,2 0 0,0 19,17A2,2 0 0,0 21,15C21,13.67 19,11.5 19,11.5M5.21,10L10,5.21L14.79,10M16.56,8.94L7.62,0L6.21,1.41L8.59,3.79L3.44,8.94C2.85,9.5 2.85,10.47 3.44,11.06L8.94,16.56C9.23,16.85 9.62,17 10,17C10.38,17 10.77,16.85 11.06,16.56L16.56,11.06C17.15,10.47 17.15,9.5 16.56,8.94Z" />
</symbol>
<symbol id="wand" viewBox="0 0 24 24">
<path d="M7.5,5.6L5,7L6.4,4.5L5,2L7.5,3.4L10,2L8.6,4.5L10,7L7.5,5.6M19.5,15.4L22,14L20.6,16.5L22,19L19.5,17.6L17,19L18.4,16.5L17,14L19.5,15.4M22,2L20.6,4.5L22,7L19.5,5.6L17,7L18.4,4.5L17,2L19.5,3.4L22,2M13.34,12.78L15.78,10.34L13.66,8.22L11.22,10.66L13.34,12.78M14.37,7.29L16.71,9.63C17.1,10 17.1,10.65 16.71,11.04L5.04,22.71C4.65,23.1 4,23.1 3.63,22.71L1.29,20.37C0.9,20 0.9,19.35 1.29,18.96L12.96,7.29C13.35,6.9 14,6.9 14.37,7.29Z" />
</symbol>
<symbol id="mirror" viewBox="0 0 24 24">
<path d="M13,23H11V1H13V23M9,19H5V5H9V3H5C3.89,3 3,3.89 3,5V19C3,20.11 3.9,21 5,21H9V19M19,7V9H21V7H19M19,5H21C21,3.89 20.1,3 19,3V5M21,15H19V17H21V15M19,11V13H21V11H19M17,3H15V5H17V3M19,21C20.11,21 21,20.11 21,19H19V21M17,19H15V21H17V19Z" />
</symbol>
<symbol id="grid" viewBox="0 0 24 24">
<path d="M10,4V8H14V4H10M16,4V8H20V4H16M16,10V14H20V10H16M16,16V20H20V16H16M14,20V16H10V20H14M8,20V16H4V20H8M8,14V10H4V14H8M8,8V4H4V8H8M10,14H14V10H10V14M4,2H20A2,2 0 0,1 22,4V20A2,2 0 0,1 20,22H4C2.92,22 2,21.1 2,20V4A2,2 0 0,1 4,2Z" />
</symbol>
</svg>
